HIERARCHY
ROOT Hips
{
	OFFSET -3.958830 18.904000 13.208200
	CHANNELS 6 Xposition Yposition Zposition Zrotation Yrotation Xrotation 
	JOINT LHipJoint
	{
		OFFSET 0.000000 0.000000 0.000000
		CHANNELS 3 Zrotation Yrotation Xrotation
		JOINT LeftUpLeg
		{
			OFFSET 1.800000 -1.400000 0.085000
			CHANNELS 3 Zrotation Yrotation Xrotation
			JOINT LeftLeg
			{
				OFFSET 2.215000 -6.000000 0.000000
				CHANNELS 3 Zrotation Yrotation Xrotation
				JOINT LeftFoot
				{
					OFFSET 2.500000 -6.900000 0.000000
					CHANNELS 3 Zrotation Yrotation Xrotation
					JOINT LeftToeBase
					{
						OFFSET 0.200000 -0.500000 1.950000
						CHANNELS 3 Zrotation Yrotation Xrotation
						End Site
						{
							OFFSET 0.000000 0.000000 0.000000
						}
					}
				}
			}
		}
	}
	JOINT RHipJoint
	{
		OFFSET 0.000000 0.000000 0.000000
		CHANNELS 3 Zrotation Yrotation Xrotation
		JOINT RightUpLeg
		{
			OFFSET -1.800000 -1.400000 0.085000
			CHANNELS 3 Zrotation Yrotation Xrotation
			JOINT RightLeg
			{
				OFFSET -2.215000 -6.000000 0.000000
				CHANNELS 3 Zrotation Yrotation Xrotation
				JOINT RightFoot
				{
					OFFSET -2.500000 -6.900000 0.000000
					CHANNELS 3 Zrotation Yrotation Xrotation
					JOINT RightToeBase
					{
						OFFSET -0.200000 -0.500000 1.950000
						CHANNELS 3 Zrotation Yrotation Xrotation
						End Site
						{
							OFFSET 0.000000 0.000000 0.000000
						}
					}
				}
			}
		}
	}
	JOINT LowerBack
	{
		OFFSET 0.000000 0.000000 0.000000
		CHANNELS 3 Zrotation Yrotation Xrotation
		JOINT Spine
		{
			OFFSET -0.087000 1.940000 -0.288900
			CHANNELS 3 Zrotation Yrotation Xrotation
			JOINT Spine1
			{
				OFFSET 0.000000 1.950000 0.060000
				CHANNELS 3 Zrotation Yrotation Xrotation
				JOINT Neck
				{
					OFFSET 0.000000 0.000000 0.000000
					CHANNELS 3 Zrotation Yrotation Xrotation
					JOINT Neck1
					{
						OFFSET 0.000000 1.600000 0.340000
						CHANNELS 3 Zrotation Yrotation Xrotation
						JOINT Head
						{
							OFFSET 0.000000 1.667000 -0.240000
							CHANNELS 3 Zrotation Yrotation Xrotation
							End Site
							{
								OFFSET 0.000000 0.000000 0.000000
							}
						}
					}
				}
				JOINT LeftShoulder
				{
					OFFSET 0.000000 0.000000 0.000000
					CHANNELS 3 Zrotation Yrotation Xrotation
					JOINT LeftArm
					{
						OFFSET 2.700000 1.550000 -0.730000
						CHANNELS 3 Zrotation Yrotation Xrotation
						JOINT LeftForeArm
						{
							OFFSET 5.450000 0.000000 0.000000
							CHANNELS 3 Zrotation Yrotation Xrotation
							JOINT LeftHand
							{
								OFFSET 3.450000 0.000000 0.000000
								CHANNELS 3 Zrotation Yrotation Xrotation
								JOINT LeftHandIndex1
								{
									OFFSET 0.750000 0.000000 0.000000
									CHANNELS 3 Zrotation Yrotation Xrotation
									End Site
									{
										OFFSET 0.000000 0.000000 0.000000
									}
								}
							}
						}
					}
				}
				JOINT RightShoulder
				{
					OFFSET 0.000000 0.000000 0.000000
					CHANNELS 3 Zrotation Yrotation Xrotation
					JOINT RightArm
					{
						OFFSET -2.700000 1.550000 -0.730000
						CHANNELS 3 Zrotation Yrotation Xrotation
						JOINT RightForeArm
						{
							OFFSET -5.450000 0.000000 0.000000
							CHANNELS 3 Zrotation Yrotation Xrotation
							JOINT RightHand
							{
								OFFSET -3.450000 0.000000 0.000000
								CHANNELS 3 Zrotation Yrotation Xrotation
								JOINT RightHandIndex1
								{
									OFFSET -0.750000 0.000000 0.000000
									CHANNELS 3 Zrotation Yrotation Xrotation
									End Site
									{
										OFFSET 0.000000 0.000000 0.000000
									}
								}
							}
						}
					}
				}
			}
		}
	}
}
MOTION
Frames: 10
Frame Time: 0.016667
0.794820 12.886800 -2.478530 -61.405887 16.984808 -38.206823 -15.794516 10.645438 6.282936 11.172522 -8.779718 -50.360879 -31.563725 21.375079 37.769745 1.065368 11.256504 0.761995 -0.183750 -0.588510 -0.069570 18.203164 -8.389088 3.300194 3.004073 11.081117 -33.964195 -31.723732 9.134062 44.405602 -0.913940 -7.388648 1.741931 -0.223210 0.556180 0.271030 -2.526409 -2.590610 -9.513807 1.687400 5.367303 41.968525 -0.409023 7.601040 8.095382 3.196866 6.220913 -13.271946 9.046379 -1.785540 41.745498 5.451260 -2.735110 7.065840 -23.350089 -22.046156 8.590300 -15.933551 -5.183807 -0.477834 9.293571 -3.533008 -1.159963 -4.180392 2.879631 0.326170 0.286300 -0.218690 0.045560 16.729556 21.802055 8.259402 8.397929 0.346656 -14.235457 -93.433524 67.028817 -64.238329 1.477268 1.026472 -0.335080 0.149740 0.309040 -0.083600 
0.813790 12.864910 -2.471150 -62.160032 19.576436 -38.354076 -15.790422 10.815880 6.413381 10.150398 -10.465736 -49.627803 -33.358130 20.923618 36.656636 1.140916 11.013540 0.866760 -0.104170 -0.473450 -0.022590 18.149536 -8.700325 2.910471 1.479780 8.793428 -32.798115 -32.912216 8.250115 38.778122 -0.788563 -6.631223 1.990224 -0.187230 0.502380 0.252560 -2.444634 -2.707051 -9.375020 0.771854 4.792496 41.405337 0.176967 6.617808 7.958061 3.181962 6.540627 -13.138538 9.564206 -1.816591 41.700860 6.033590 -2.548750 6.410980 -22.994950 -22.238806 8.831536 -16.759640 -5.578797 -0.528643 9.853361 -3.143014 -1.113758 -4.109340 2.928213 0.316030 0.246410 -0.176270 0.083390 16.519792 21.538944 7.682840 9.444988 -1.290484 -15.748710 -87.281747 69.930408 -59.414026 1.307284 1.151083 -0.289280 0.136700 0.227510 -0.069060 
0.816380 12.827940 -2.474750 -61.781051 22.899171 -37.035859 -15.815573 10.948994 6.520057 7.490922 -13.045091 -49.503823 -34.027925 19.896695 35.548445 1.233143 10.476225 1.082152 0.004080 -0.296020 0.023470 18.083020 -8.962532 2.528508 -2.100815 6.379219 -33.279901 -33.454942 6.863581 31.998756 -0.614021 -5.693082 2.310213 -0.132090 0.448480 0.228030 -2.270359 -2.866307 -9.199848 -1.981542 5.275276 39.608273 1.292138 5.792733 7.709912 2.869812 7.139710 -12.999009 10.694751 -1.803746 40.919043 7.164390 -2.311540 6.577730 -22.169988 -22.245890 8.987673 -17.367489 -6.314407 -0.520301 9.710609 -3.181455 -0.985454 -4.012449 3.015562 0.251550 0.214360 -0.132300 0.154030 16.384581 21.079967 7.130771 11.186024 -3.581911 -17.773605 -72.270200 71.259146 -47.880029 1.421827 0.264542 -0.208880 0.101450 0.091440 -0.019710 
0.817740 12.758930 -2.480680 -63.029703 26.762326 -35.544174 -15.832567 10.857790 6.756854 5.382025 -16.347546 -50.788532 -34.798081 19.452838 36.006322 1.292514 10.385270 1.163297 0.022780 -0.245040 0.017300 18.078731 -9.035784 2.248534 -5.816603 4.108833 -34.861125 -32.304848 4.816719 26.178947 -0.401121 -4.857251 2.608439 -0.095410 0.470480 0.203430 -2.146313 -3.009121 -9.162298 -3.002602 4.376918 37.546030 2.077647 4.230444 7.096495 2.716087 7.776344 -12.546871 11.843937 -2.195651 39.101406 6.603710 -2.097640 6.719840 -22.141224 -21.485714 8.497279 -17.668541 -7.210083 -0.501303 9.504240 -4.489318 -1.021567 -4.005492 3.022433 0.206430 0.243880 -0.155920 0.186110 16.672050 19.220560 6.753134 11.309807 -4.238269 -16.778893 -50.543007 65.665121 -30.046886 1.734695 -0.927406 -0.214710 0.116470 0.052070 -0.002910 
0.838010 12.728800 -2.512500 -65.042335 30.381567 -37.285940 -15.792419 11.151721 6.802952 1.408712 -18.952044 -48.022863 -30.727173 16.968492 36.503550 1.078812 9.538473 1.402039 0.087450 -0.145830 0.050790 18.045535 -9.382653 1.906276 -9.280304 1.662932 -33.269185 -28.500698 2.816614 23.518202 -0.285123 -4.177655 2.828401 -0.044030 0.418050 0.193270 -2.104361 -3.278260 -8.985020 -2.846044 2.987823 38.678857 2.318966 2.696821 8.046355 2.598662 7.462208 -12.611577 10.976609 -2.420000 39.340001 6.866430 -2.381810 3.558290 -21.221022 -21.920459 8.354064 -18.500822 -8.932450 -0.403507 9.795888 -4.749559 -1.121728 -3.957694 2.995153 0.249930 0.198760 -0.097940 0.199160 15.915685 19.170974 6.993328 10.979085 -4.126244 -16.180493 -39.272751 59.574453 -20.954642 1.848092 -1.247233 -0.201120 0.141520 0.018650 -0.005840 
0.842620 12.704520 -2.550520 -66.845622 31.738828 -39.253740 -15.738893 11.315704 6.750815 -1.323424 -19.595224 -45.565635 -26.666645 15.389401 37.614035 0.902031 9.037833 1.543635 0.108250 -0.119520 0.074990 18.058513 -9.558481 1.840091 -9.986964 1.029819 -32.801562 -27.151785 2.368943 24.620377 -0.286334 -4.152970 2.829142 -0.021300 0.394810 0.176880 -2.220967 -3.318921 -8.919499 -0.975289 1.702570 40.251586 1.531498 1.941998 9.027378 2.644505 6.781643 -12.970422 9.512544 -2.105498 39.564426 6.784120 -2.224280 1.559260 -20.803119 -22.616560 8.163770 -17.852700 -10.207609 -0.176612 9.149046 -4.711182 -1.117671 -3.948061 2.937216 0.291420 0.173500 -0.075270 0.191130 15.251741 19.696596 7.806426 9.988482 -3.807552 -14.608642 -33.551740 48.881566 -14.251487 1.951813 -1.395915 -0.217630 0.173450 0.018510 -0.024120 
0.835520 12.686770 -2.612460 -70.180841 31.672008 -42.476132 -15.628747 11.404114 6.593029 -3.379985 -19.071245 -43.353127 -20.908343 13.351065 39.036038 0.702913 8.376925 1.728772 0.144130 -0.107570 0.164180 18.132121 -9.742492 1.955529 -9.549429 1.452858 -33.841779 -24.548184 2.111508 31.789285 -0.387600 -4.681629 2.611672 -0.030590 0.314150 0.179920 -2.633875 -2.953933 -8.908645 4.142811 -1.088844 42.945039 -1.057949 0.923566 9.419555 3.189988 6.403553 -13.899592 8.732657 -1.716997 40.009750 5.562610 -1.055560 0.330540 -20.965179 -24.211975 8.490312 -15.806776 -10.340441 -0.129328 8.016814 -4.323985 -0.986057 -3.905446 2.908647 0.342450 0.124690 -0.022580 0.166190 14.039637 20.656535 8.805373 9.243303 -3.673317 -13.220484 -30.468221 40.928003 -10.599708 2.053202 -1.461264 -0.205490 0.147310 -0.013810 -0.062760 
0.830840 12.689960 -2.641330 -70.930412 29.763836 -44.794514 -15.545107 11.489878 6.222410 -3.708605 -17.181619 -41.629708 -17.238387 12.435519 39.815796 0.567994 8.036142 1.783460 0.166030 -0.096940 0.220730 18.195546 -9.706634 2.309722 -9.339423 3.274083 -35.621725 -21.062600 1.576505 41.522429 -0.582206 -5.686389 2.218212 -0.040230 0.225490 0.182290 -2.982023 -2.650345 -8.926861 7.734759 -2.472740 45.622249 -3.172629 0.981161 9.921056 3.523773 5.189038 -14.521690 6.382944 -0.594562 41.117695 4.964270 0.154860 -1.566680 -20.353291 -24.804845 8.545302 -14.762183 -10.205936 -0.112753 6.610989 -4.955485 -0.905617 -3.840983 2.894498 0.404210 0.059460 0.033720 0.125130 12.642664 21.807920 9.644500 8.476943 -3.041824 -12.212911 -27.652834 36.101615 -8.247892 2.119579 -1.461222 -0.190000 0.118240 -0.013890 -0.099280 
0.830450 12.658850 -2.646390 -70.816760 27.932638 -45.879785 -15.488778 11.312977 5.945483 -5.000574 -16.169753 -41.466358 -12.816267 11.627755 42.356066 0.512646 7.989614 1.793364 0.155770 -0.134000 0.237730 18.300486 -9.457753 2.780470 -9.847319 5.461579 -38.332768 -17.606193 0.256433 51.609412 -0.838956 -7.061173 1.759745 -0.066820 0.212990 0.185770 -3.288286 -2.298807 -9.082313 10.885569 -3.535938 46.816590 -5.402276 1.212861 9.767752 3.979043 4.206585 -14.932325 4.443871 0.266884 42.164319 4.132550 0.828150 -1.452500 -20.176782 -24.905156 8.428251 -14.518908 -10.007456 -0.283896 6.545673 -5.724296 -0.933733 -3.822061 2.867148 0.441010 0.046660 0.045530 0.114740 11.509256 22.499117 10.187512 8.298565 -3.058000 -11.809748 -26.577235 34.647818 -7.351840 2.127889 -1.447413 -0.200670 0.118650 -0.005580 -0.118540 
0.844680 12.624240 -2.630900 -69.464798 26.808065 -46.486430 -15.455092 11.242435 5.656058 -8.333707 -15.203203 -39.784848 -7.940229 9.946082 43.056874 0.396078 7.506255 1.958855 0.130110 -0.181000 0.227470 18.363623 -9.253912 3.192996 -10.761465 7.087269 -40.322982 -13.173916 -2.124930 58.064472 -0.995327 -7.984862 1.463816 -0.089810 0.223100 0.173990 -3.473792 -2.072658 -9.186288 12.024382 -3.595119 47.802416 -6.975708 1.540285 9.218298 4.167947 3.840302 -15.062040 3.652437 0.770866 43.239384 4.365470 0.862490 -0.343120 -21.062613 -24.866368 8.266160 -13.716474 -9.235564 -0.726086 6.625377 -6.836095 -0.993447 -3.804717 2.861789 0.457120 0.044900 0.029900 0.106030 11.986707 22.785988 10.370304 7.241297 -3.733810 -11.575907 -25.057509 35.084692 -6.718938 2.126473 -1.442170 -0.222200 0.122780 0.012480 -0.129240 
